<svg width="32" height="33" viewBox="0 0 32 33" fill="none" xmlns="http://www.w3.org/2000/svg">
<path opacity="0.1" fill-rule="evenodd" clip-rule="evenodd" d="M0 16.6718C0 7.8352 7.16344 0.671753 16 0.671753C24.8366 0.671753 32 7.8352 32 16.6718C32 25.5083 24.8366 32.6718 16 32.6718C7.16344 32.6718 0 25.5083 0 16.6718Z" fill="white"/>
<path fill-rule="evenodd" clip-rule="evenodd" d="M24.5333 16.6599C24.5333 17.237 24.4746 17.8133 24.3592 18.3751C24.2467 18.9235 24.08 19.4619 23.8617 19.9766C23.6483 20.4822 23.3837 20.9694 23.0745 21.4237C22.77 21.8752 22.4191 22.2988 22.0337 22.6849C21.6474 23.0693 21.2224 23.4192 20.7711 23.7251C20.3152 24.0322 19.8273 24.2964 19.3215 24.5107C18.806 24.7279 18.2664 24.8943 17.7184 25.0066C17.1559 25.1223 16.5776 25.1814 15.9996 25.1814C15.4213 25.1814 14.8429 25.1223 14.2812 25.0066C13.7324 24.8943 13.1928 24.7279 12.6778 24.5107C12.1719 24.2964 11.6836 24.0322 11.2277 23.7251C10.7764 23.4193 10.3514 23.0693 9.96599 22.6849C9.58015 22.2988 9.22928 21.8752 8.92427 21.4237C8.61675 20.9694 8.35172 20.4821 8.13755 19.9766C7.91918 19.4619 7.75211 18.9234 7.63919 18.3751C7.52503 17.8133 7.46667 17.237 7.46667 16.6599C7.46667 16.0824 7.52499 15.5049 7.63922 14.9444C7.75215 14.396 7.91922 13.8567 8.13759 13.3429C8.35175 12.8369 8.61678 12.3493 8.9243 11.8949C9.22931 11.443 9.58018 11.0203 9.96602 10.6337C10.3515 10.2492 10.7765 9.90015 11.2278 9.59475C11.6836 9.28641 12.172 9.02223 12.6778 8.8075C13.1929 8.58985 13.7324 8.42302 14.2812 8.31153C14.8429 8.19669 15.4213 8.13843 15.9997 8.13843C16.5776 8.13843 17.1559 8.19669 17.7185 8.31153C18.2664 8.42305 18.806 8.58988 19.3215 8.8075C19.8273 9.02219 20.3153 9.28641 20.7711 9.59475C21.2224 9.90015 21.6475 10.2492 22.0337 10.6337C22.4191 11.0203 22.77 11.443 23.0746 11.8949C23.3837 12.3493 23.6483 12.8369 23.8617 13.3429C24.08 13.8567 24.2467 14.396 24.3592 14.9444C24.4746 15.5049 24.5333 16.0824 24.5333 16.6599ZM12.8903 10.0778C10.8581 11.0361 9.34131 12.906 8.86836 15.1595C9.06048 15.1612 12.0973 15.1995 15.5962 14.2711C14.3349 12.0334 12.9874 10.2072 12.8903 10.0778ZM16.2 15.3917C12.4477 16.5134 8.84711 16.4327 8.71795 16.4278C8.71585 16.506 8.71211 16.5817 8.71211 16.6599C8.71211 18.5294 9.41839 20.2337 10.5793 21.5223C10.5768 21.5186 12.5711 17.9856 16.5038 16.7157C16.5988 16.6841 16.6955 16.6558 16.7913 16.6283C16.6084 16.2147 16.4087 15.8003 16.2 15.3917ZM20.8124 11.1983C19.5293 10.0686 17.8447 9.38339 15.9996 9.38339C15.4075 9.38339 14.8329 9.45496 14.2824 9.58727C14.3916 9.73375 15.7604 11.547 17.0067 13.8322C19.7565 12.8028 20.7944 11.225 20.8124 11.1983ZM17.288 17.8341C17.2718 17.8395 17.2556 17.8441 17.2397 17.8499C12.94 19.3467 11.5358 22.3632 11.5206 22.3961C12.7578 23.3568 14.3096 23.9365 15.9996 23.9365C17.0088 23.9365 17.9701 23.7313 18.8448 23.3598C18.7368 22.724 18.3135 20.4954 17.288 17.8341ZM20.0719 22.6949C21.7082 21.5922 22.8703 19.8414 23.1945 17.8133C23.0445 17.765 21.0057 17.1205 18.6535 17.4971C19.6093 20.1201 19.9977 22.2563 20.0719 22.6949ZM17.5676 14.9165C17.7368 15.2635 17.9006 15.6167 18.0518 15.9717C18.1056 16.099 18.1581 16.2239 18.2093 16.3487C20.7128 16.0341 23.1792 16.5634 23.2846 16.585C23.2679 14.8599 22.65 13.2767 21.6275 12.0372C21.6137 12.0567 20.4449 13.7431 17.5676 14.9165Z" fill="white"/>
</svg>
