<svg width="55" height="49" viewBox="0 0 55 49" fill="none" xmlns="http://www.w3.org/2000/svg">
<rect y="0.399048" width="48" height="48" rx="8" fill="#F5F7FA"/>
<g clip-path="url(#clip0_22_768)">
<path d="M54.9957 19.9155C55.0015 19.8738 55.0015 19.8316 54.9957 19.7899C55.0011 19.756 55.0011 19.7213 54.9957 19.6873L54.5883 16.7546C54.5295 16.4038 54.3723 16.0758 54.1344 15.8075L54.0645 15.7276L53.9365 15.6021L46.8829 9.64552L47.0808 9.83953C46.9189 9.64964 46.7157 9.49776 46.4861 9.39507C46.2565 9.29238 46.0062 9.24149 45.7539 9.24615H43.6122C43.2639 9.23938 42.9236 9.34794 42.6461 9.55425C42.3547 9.34918 42.0038 9.24118 41.6451 9.24615H39.5034C39.2225 9.24168 38.9454 9.31002 38.7001 9.44428C38.4549 9.57853 38.2501 9.77393 38.1067 10.0107C37.8855 10.3488 37.8023 10.7563 37.8738 11.1518L38.1416 13.0004C37.9642 12.9018 37.7635 12.8507 37.5596 12.8521H27.1887C26.8166 12.8543 26.4531 12.9613 26.1411 13.1601C25.8395 13.3453 25.5973 13.6103 25.4428 13.9247L24.6396 13.2514C24.3235 12.9647 23.9063 12.8093 23.4757 12.8178H7.20353C6.83012 12.8245 6.46501 12.9268 6.14436 13.1145C5.70569 13.3662 5.38421 13.7755 5.24809 14.2556L0.0801167 31.201C-0.0164452 31.4803 -0.0259442 31.7814 0.0528362 32.0659C0.131617 32.3504 0.295109 32.6056 0.522426 32.7986C0.581658 32.8478 0.643851 32.8936 0.708664 32.9355C0.708664 32.9355 0.603891 32.867 0.545692 32.81L7.59931 38.778C7.89769 39.0473 8.28781 39.1978 8.69336 39.2002H25.0936C25.4681 39.1906 25.8335 39.0844 26.1528 38.8921C26.3334 38.7953 26.495 38.6678 26.63 38.5155L26.6882 38.4356L26.7813 38.3216L26.8512 38.196L27.6194 38.8465C27.9135 39.1051 28.2951 39.2473 28.6902 39.2458H45.1253C45.4994 39.2336 45.8641 39.1276 46.1845 38.9377C46.361 38.8351 46.5217 38.7083 46.6618 38.5612L46.7199 38.4813L46.813 38.3672C46.8625 38.295 46.9055 38.2187 46.941 38.1389C46.9791 38.0698 47.0103 37.9972 47.0342 37.9222L51.7482 22.4488V22.3118C51.754 22.2587 51.754 22.2052 51.7482 22.1521V22.0494C51.7539 22.0153 51.7539 21.9807 51.7482 21.9466C51.7535 21.8745 51.7535 21.802 51.7482 21.7298H53.2614C53.393 21.7417 53.5255 21.7417 53.6571 21.7298H53.7619C53.8471 21.7049 53.9291 21.6704 54.0063 21.6271H54.1227L54.3322 21.4674L54.4253 21.3989L54.5883 21.1935V21.1251L54.7047 20.9311C54.6982 20.8933 54.6982 20.8547 54.7047 20.817C54.6985 20.7985 54.6985 20.7785 54.7047 20.7599C54.7294 20.693 54.7489 20.6243 54.7629 20.5545C54.7575 20.532 54.7575 20.5085 54.7629 20.486C54.7572 20.4521 54.7572 20.4173 54.7629 20.3834C54.7629 20.3834 54.9957 19.9383 54.9957 19.9155Z" fill="black"/>
<path d="M23.9529 14.1187C24.0147 14.1735 24.0579 14.2455 24.0766 14.3251C24.0954 14.4047 24.0887 14.4879 24.0577 14.5637L18.9014 31.4977C18.8365 31.6826 18.7036 31.8372 18.5289 31.9314C18.3868 32.0246 18.2222 32.0797 18.0517 32.0911H1.66316C1.5232 32.0845 1.39061 32.0277 1.29069 31.9314C1.23125 31.8775 1.18954 31.8074 1.17088 31.7302C1.15221 31.653 1.15747 31.5721 1.18594 31.4977L6.35391 14.5637C6.41346 14.3765 6.54212 14.2178 6.71474 14.1187C6.85924 14.0322 7.023 13.9813 7.19196 13.9703H23.5805C23.7193 13.9717 23.8525 14.0247 23.9529 14.1187ZM15.3978 28.0858L18.4823 17.9756H9.84581L6.77292 28.0858H15.3978ZM39.5965 14.2899C39.6525 14.3536 39.7223 14.4041 39.801 14.4377C39.8796 14.4712 39.9648 14.487 40.0505 14.4838H42.1805C42.2617 14.4846 42.3416 14.4651 42.4129 14.4272C42.4842 14.3893 42.5444 14.3341 42.5879 14.267C42.6257 14.2146 42.6525 14.1553 42.6665 14.0926C42.6804 14.0298 42.6814 13.965 42.6694 13.9019L42.2504 10.8894C42.2105 10.7499 42.1388 10.6212 42.0409 10.5128C41.9849 10.4491 41.9151 10.3986 41.8365 10.365C41.7579 10.3314 41.6726 10.3156 41.5869 10.3188H39.4569C39.3758 10.318 39.2958 10.3375 39.2245 10.3755C39.1532 10.4134 39.093 10.4685 39.0495 10.5356C38.968 10.6954 38.9331 10.7981 38.968 10.8894L39.3987 13.9019C39.4208 14.0486 39.4901 14.1845 39.5965 14.2899ZM46.3592 10.8665C46.3192 10.7271 46.2476 10.5984 46.1496 10.49C46.0961 10.4265 46.0283 10.376 45.9516 10.3423C45.8749 10.3087 45.7913 10.2928 45.7073 10.296H43.5656C43.4859 10.2938 43.407 10.3127 43.3373 10.3509C43.2676 10.3891 43.2098 10.445 43.1699 10.5128C43.0925 10.614 43.0589 10.7412 43.0768 10.8665L43.5074 13.8791C43.5345 14.0242 43.6031 14.1588 43.7053 14.267C43.7622 14.3295 43.8323 14.3792 43.9107 14.4126C43.989 14.4461 44.0738 14.4626 44.1592 14.461H46.301C46.3806 14.462 46.4589 14.4426 46.5284 14.4045C46.5979 14.3665 46.6559 14.3112 46.6967 14.2442C46.7372 14.1932 46.7655 14.1339 46.7796 14.0707C46.7937 14.0075 46.7932 13.942 46.7782 13.8791L46.3592 10.8665ZM37.7226 15.431L37.513 13.9475H27.1888C27.0267 13.9563 26.8698 14.0075 26.7348 14.0959C26.6491 14.1417 26.5744 14.2052 26.5162 14.2821C26.458 14.3589 26.4174 14.4472 26.3973 14.5409L25.5359 17.3708C25.5016 17.4415 25.4898 17.5209 25.5023 17.5983C25.5148 17.6757 25.5508 17.7475 25.6058 17.8045C25.7039 17.8949 25.832 17.9476 25.9666 17.9528H38.5141L35.4296 28.063H22.917C22.7557 28.0666 22.5986 28.114 22.4631 28.1999C22.2985 28.3024 22.1783 28.4609 22.1256 28.645L21.2526 31.4749C21.2241 31.5475 21.2166 31.6264 21.231 31.7029C21.2454 31.7795 21.281 31.8506 21.334 31.9085C21.4291 32.005 21.5582 32.0622 21.6949 32.0683H38.1299C38.2999 32.0539 38.4638 31.9991 38.6071 31.9085C38.779 31.8139 38.908 31.659 38.968 31.4749L43.6936 16.0015H38.3744C38.29 16.0031 38.2062 15.9878 38.1281 15.9564C38.05 15.925 37.9794 15.8782 37.9205 15.8189C37.8242 15.7155 37.7562 15.5899 37.7226 15.4538V15.431Z" fill="white"/>
</g>
<defs>
<clipPath id="clip0_22_768">
<rect width="55" height="30" fill="white" transform="translate(0 9.24585)"/>
</clipPath>
</defs>
</svg>
