<svg width="52" height="49" viewBox="0 0 52 49" fill="none" xmlns="http://www.w3.org/2000/svg">
<rect y="0.399048" width="48" height="48" rx="8" fill="#F5F7FA"/>
<g clip-path="url(#clip0_22_771)">
<path d="M12.3431 14.2458C10.3124 14.2458 8.36487 15.0525 6.92893 16.4885L2.24264 21.1748C0.8067 22.6107 0 24.5582 0 26.589C0 30.8178 3.42809 34.2458 7.65687 34.2458C9.6876 34.2458 11.6351 33.4391 13.0711 32.0032L16.3126 28.7617C16.3126 28.7616 16.3127 28.7617 16.3126 28.7617L25.7573 19.3169C26.4431 18.6311 27.3733 18.2458 28.3431 18.2458C29.9669 18.2458 31.3435 19.3041 31.8207 20.7686L34.8015 17.7878C33.4417 15.6581 31.0573 14.2458 28.3431 14.2458C26.3124 14.2458 24.3649 15.0525 22.9289 16.4885L10.2427 29.1748C9.55687 29.8606 8.62673 30.2458 7.65687 30.2458C5.63723 30.2458 4 28.6087 4 26.589C4 25.6191 4.38527 24.689 5.07107 24.0032L9.75733 19.3169C10.4431 18.6311 11.3733 18.2458 12.3431 18.2458C13.9669 18.2458 15.3435 19.3042 15.8207 20.7687L18.8015 17.7879C17.4417 15.6581 15.0574 14.2458 12.3431 14.2458Z" fill="#394149"/>
<path d="M26.2427 29.1748C25.5569 29.8606 24.6268 30.2458 23.6569 30.2458C22.0334 30.2458 20.6569 29.1878 20.1795 27.7236L17.1989 30.7043C18.5587 32.8338 20.9429 34.2458 23.6569 34.2458C25.6877 34.2458 27.6352 33.4391 29.0711 32.0032L41.7574 19.3169C42.4432 18.6311 43.3733 18.2458 44.3432 18.2458C46.3629 18.2458 48 19.8831 48 21.9027C48 22.8726 47.6148 23.8027 46.929 24.4885L42.2427 29.1748C41.5569 29.8606 40.6268 30.2458 39.6569 30.2458C38.0332 30.2458 36.6567 29.1876 36.1794 27.7233L33.1987 30.7041C34.5585 32.8337 36.9428 34.2458 39.6569 34.2458C41.6876 34.2458 43.6352 33.4391 45.0711 32.0032L49.7574 27.3169C51.1933 25.881 52 23.9334 52 21.9027C52 17.6739 48.572 14.2458 44.3432 14.2458C42.3125 14.2458 40.3649 15.0525 38.929 16.4885L26.2427 29.1748Z" fill="#394149"/>
</g>
<defs>
<clipPath id="clip0_22_771">
<rect width="52" height="20" fill="white" transform="translate(0 14.2458)"/>
</clipPath>
</defs>
</svg>
