<svg width="48" height="49" viewBox="0 0 48 49" fill="none" xmlns="http://www.w3.org/2000/svg">
<rect y="0.399048" width="48" height="48" rx="8" fill="#F5F7FA"/>
<g clip-path="url(#clip0_22_770)">
<path d="M38.4375 12.0896C38.4375 12.5556 38.8199 12.9333 39.2917 12.9333H40.1458C40.6176 12.9333 41 12.5556 41 12.0896C41 11.6236 40.6176 11.2458 40.1458 11.2458H39.2917C38.8199 11.2458 38.4375 11.6236 38.4375 12.0896Z" fill="#212326"/>
<path d="M13.6667 38.2458H17.8161L16.6081 37.0526C16.2877 36.7361 15.8532 36.5583 15.4001 36.5583H13.6667C7.06225 36.5583 1.70833 31.2697 1.70833 24.7458C1.70833 18.222 7.06225 12.9334 13.6667 12.9333H27.3333C33.9378 12.9333 39.2917 18.222 39.2917 24.7458C39.2917 31.2697 33.9378 36.5583 27.3333 36.5583H22.2209C21.5413 36.5583 20.8895 36.2917 20.4089 35.817L18.9937 34.419C18.1928 33.6278 17.1064 33.1833 15.9737 33.1833H13.6667C8.94921 33.1833 5.125 29.4058 5.125 24.7458C5.125 20.0859 8.94921 16.3083 13.6667 16.3083H27.3333C32.0508 16.3083 35.875 20.0859 35.875 24.7458C35.875 29.4058 32.0508 33.1833 27.3333 33.1833H24.0507C23.371 33.1833 22.7193 32.9167 22.2387 32.442L20.8234 31.044C20.0225 30.2528 18.9362 29.8083 17.8035 29.8083H13.6667C10.8362 29.8083 8.54167 27.5418 8.54167 24.7458C8.54167 21.9499 10.8362 19.6833 13.6667 19.6833H27.3333C30.1638 19.6833 32.4583 21.9499 32.4583 24.7458C32.4583 27.5077 30.2194 29.753 27.4367 29.8073L27.4361 29.8083H26.1861C25.5064 29.8083 24.8547 29.5417 24.3741 29.067L22.9588 27.669C22.3017 27.0198 21.4524 26.6041 20.5429 26.4757L20.5 26.4333H13.6667C12.7232 26.4333 11.9583 25.6778 11.9583 24.7458C11.9583 23.8139 12.7232 23.0583 13.6667 23.0583H27.3333C28.2768 23.0583 29.0417 23.8139 29.0417 24.7458C29.0417 25.6778 28.2768 26.4333 27.3333 26.4333H23.9167L25.1247 27.6266C25.445 27.9431 25.8795 28.1208 26.3326 28.1208H27.3333C29.2203 28.1208 30.75 26.6098 30.75 24.7458C30.75 22.8819 29.2203 21.3708 27.3333 21.3708H13.6667C11.7797 21.3708 10.25 22.8819 10.25 24.7458C10.25 26.6098 11.7797 28.1208 13.6667 28.1208H19.9389C20.6186 28.1208 21.2703 28.3875 21.7509 28.8622L23.1662 30.2602C23.9671 31.0514 25.0534 31.4958 26.1861 31.4958H27.7604V31.4829C31.3354 31.2651 34.1667 28.3321 34.1667 24.7458C34.1667 21.018 31.1072 17.9958 27.3333 17.9958H13.6667C9.89275 17.9958 6.83333 21.018 6.83333 24.7458C6.83333 28.4738 9.89275 31.4958 13.6667 31.4958H17.8035C18.4831 31.4958 19.1349 31.7625 19.6155 32.2372L21.0307 33.6352C21.8317 34.4264 22.918 34.8708 24.0507 34.8708H27.3333C32.9943 34.8708 37.5833 30.3378 37.5833 24.7458C37.5833 19.1539 32.9943 14.6208 27.3333 14.6208H13.6667C8.00573 14.6208 3.41667 19.1539 3.41667 24.7458C3.41667 30.3378 8.00573 34.8708 13.6667 34.8708H15.9737C16.6534 34.8708 17.3051 35.1375 17.7857 35.6122L19.201 37.0102C20.0019 37.8014 21.0882 38.2458 22.2209 38.2458H27.3333C34.8812 38.2458 41 32.2017 41 24.7458C41 17.29 34.8812 11.2458 27.3333 11.2458L13.6667 11.2459C6.11877 11.2459 -6.59857e-07 17.29 0 24.7458C6.59857e-07 32.2017 6.11878 38.2458 13.6667 38.2458Z" fill="#212326"/>
</g>
<defs>
<clipPath id="clip0_22_770">
<rect width="41" height="27" fill="white" transform="translate(0 11.2458)"/>
</clipPath>
</defs>
</svg>
