<svg width="48" height="49" viewBox="0 0 48 49" fill="none" xmlns="http://www.w3.org/2000/svg">
<rect y="0.399048" width="48" height="48" rx="8" fill="#F5F7FA"/>
<g clip-path="url(#clip0_22_767)">
<path fill-rule="evenodd" clip-rule="evenodd" d="M10.0981 14.3605L0.112305 24.2458C2.10964 26.2231 4.39129 27.8895 6.87894 29.1932C7.56655 30.9988 8.64433 32.6921 10.1123 34.1453C15.6352 39.6126 24.5895 39.6126 30.1123 34.1453C31.5803 32.6921 32.6581 30.9988 33.3457 29.1931C35.8333 27.8895 38.115 26.2231 40.1123 24.2458L30.1346 14.3685C30.1272 14.3611 30.1198 14.3537 30.1123 14.3463C24.5895 8.87902 15.6352 8.87902 10.1123 14.3463C10.1076 14.3511 10.1028 14.3558 10.0981 14.3605ZM29.1568 30.9767C26.2468 31.9489 23.192 32.4468 20.1123 32.4468C17.0326 32.4468 13.9779 31.9489 11.0679 30.9767C11.3832 31.3908 11.7313 31.7882 12.1123 32.1654C16.5306 36.5393 23.694 36.5393 28.1123 32.1654C28.4933 31.7882 28.8415 31.3908 29.1568 30.9767ZM12.3174 16.1282C13.0677 16.619 13.8655 17.0389 14.7003 17.3812C16.4161 18.0848 18.2551 18.4469 20.1123 18.4469C21.9695 18.4469 23.8085 18.0848 25.5243 17.3812C26.3591 17.0389 27.1569 16.6189 27.9073 16.1282C23.5441 12.0184 16.6805 12.0184 12.3174 16.1282Z" fill="#3B4158"/>
</g>
<defs>
<clipPath id="clip0_22_767">
<rect width="40" height="28" fill="white" transform="translate(0.112305 10.2458)"/>
</clipPath>
</defs>
</svg>
