<svg width="48" height="48" viewBox="0 0 48 48" fill="none" xmlns="http://www.w3.org/2000/svg">
<path d="M23.2958 29.5471L23.9031 29.0361C25.7082 27.5177 27.0026 25.4809 27.611 23.2019C28.2193 20.9229 28.1122 18.5119 27.304 16.2959C26.4959 14.0799 25.0258 12.1659 23.0932 10.8136C21.1605 9.46125 18.8588 8.73592 16.5 8.73592C14.1412 8.73592 11.8395 9.46125 9.90685 10.8136C7.97421 12.1659 6.50417 14.0799 5.69602 16.2959C4.88788 18.5119 4.78071 20.9229 5.38907 23.2019C5.99742 25.4809 7.29186 27.5177 9.09689 29.0361L9.70424 29.5471L8.98116 29.8743C6.00799 31.2197 3.4495 33.3371 1.57169 36.0061L23.2958 29.5471ZM23.2958 29.5471L24.0189 29.8743M23.2958 29.5471L24.0189 29.8743M24.0189 29.8743C26.9922 31.2198 29.5507 33.3372 31.4286 36.0064L31.4357 36.0166L31.4434 36.0264C31.5893 36.2133 31.6956 36.4279 31.7561 36.6571C31.8165 36.8864 31.8297 37.1255 31.7949 37.36C31.7601 37.5945 31.6781 37.8195 31.5537 38.0213C31.4293 38.2232 31.2652 38.3976 31.0714 38.5341C30.8775 38.6706 30.6579 38.7663 30.426 38.8153C30.1941 38.8644 29.9546 38.8658 29.722 38.8195C29.4895 38.7732 29.2689 38.6801 29.0734 38.5459C28.878 38.4117 28.7118 38.2392 28.585 38.0389L28.5786 38.0288L28.5717 38.0189C27.211 36.0809 25.4037 34.4989 23.3025 33.4068C21.2013 32.3147 18.8681 31.7446 16.5 31.7446C14.132 31.7446 11.7987 32.3147 9.69755 33.4068C7.59638 34.4989 5.78903 36.0809 4.4283 38.0189L4.42719 38.0205C4.26723 38.2503 4.05395 38.4378 3.80564 38.567C3.55732 38.6962 3.28138 38.7633 3.00145 38.7625L2.99839 38.7625C2.63938 38.7637 2.28908 38.652 1.99701 38.4432L1.99461 38.4415M24.0189 29.8743L1.99461 38.4415M1.99461 38.4415C1.61604 38.1743 1.35891 37.7678 1.27963 37.3112C1.20037 36.8548 1.30532 36.3856 1.57145 36.0064L1.99461 38.4415ZM46.2901 38.4391L46.2901 38.4391C46.4787 38.3084 46.6394 38.1414 46.7628 37.9481C46.8863 37.7547 46.9701 37.5387 47.0094 37.3126C47.0486 37.0865 47.0426 36.8549 46.9915 36.6312C46.9405 36.4075 46.8455 36.1962 46.712 36.0095L46.7098 36.0065C44.832 33.3372 42.2734 31.2198 39.3001 29.8743L38.5751 29.5462L39.1853 29.0353C40.9952 27.5204 42.2942 25.4845 42.9055 23.2048C43.5168 20.9252 43.4107 18.5125 42.6016 16.2953C41.7925 14.0781 40.3197 12.1641 38.3838 10.814C36.4479 9.46385 34.1429 8.74314 31.7827 8.74999L31.7804 8.75C30.7301 8.74825 29.6846 8.89328 28.6744 9.18089L28.6654 9.18344L28.6654 9.18336C28.441 9.24274 28.2307 9.34616 28.0467 9.48761C27.8626 9.62905 27.7086 9.8057 27.5935 10.0073C27.4784 10.2088 27.4045 10.4312 27.3762 10.6616C27.3479 10.892 27.3657 11.1257 27.4285 11.3491C27.4914 11.5726 27.5981 11.7813 27.7424 11.9631L27.364 12.2634L27.7424 11.9631C27.8867 12.1449 28.0657 12.2962 28.269 12.4081C28.4724 12.5201 28.6959 12.5904 28.9267 12.6152C29.1575 12.6399 29.3909 12.6185 29.6133 12.5521L29.6191 12.5504L29.6191 12.5504C30.3226 12.3497 31.0507 12.2486 31.7822 12.25M46.2901 38.4391L43.4438 38.3062L43.8524 38.0182C43.8523 38.018 43.8522 38.0178 43.852 38.0176C42.4886 36.0834 40.6808 34.5046 38.5806 33.414C36.4801 32.3232 34.1486 31.7526 31.7818 31.75H31.7813C31.3171 31.75 30.872 31.5656 30.5438 31.2374C30.2156 30.9092 30.0313 30.4641 30.0313 30C30.0313 29.5359 30.2156 29.0908 30.5438 28.7626C30.872 28.4344 31.3171 28.25 31.7813 28.25C33.903 28.25 35.9378 27.4071 37.4381 25.9069C38.9384 24.4066 39.7813 22.3717 39.7813 20.25C39.7813 18.1283 38.9384 16.0934 37.4381 14.5931C35.938 13.0931 33.9036 12.2502 31.7822 12.25M46.2901 38.4391L46.2843 38.4432M46.2901 38.4391L46.2843 38.4432M31.7822 12.25L31.7813 12.75V12.25C31.7816 12.25 31.7819 12.25 31.7822 12.25ZM39.5063 29.4187L39.7124 28.9632C39.7812 28.9943 39.8497 29.0258 39.9181 29.0577C39.7838 29.181 39.6465 29.3014 39.5063 29.4187ZM39.5063 29.4187L39.8272 29.8022C39.8863 29.7527 39.9448 29.7028 40.0029 29.6523C39.8387 29.5721 39.6731 29.4942 39.5063 29.4187ZM46.2843 38.4432C45.9924 38.6519 45.6423 38.7635 45.2835 38.7625L46.2843 38.4432ZM9.84826 15.8054C8.96921 17.121 8.50001 18.6677 8.50001 20.25C8.50001 22.3717 9.34287 24.4066 10.8432 25.9069C12.3435 27.4071 14.3783 28.25 16.5 28.25C18.0823 28.25 19.629 27.7808 20.9446 26.9018C22.2602 26.0227 23.2855 24.7733 23.8911 23.3115C24.4966 21.8497 24.655 20.2411 24.3463 18.6893C24.0376 17.1374 23.2757 15.712 22.1569 14.5931C21.038 13.4743 19.6126 12.7124 18.0607 12.4037C16.5089 12.095 14.9004 12.2535 13.4385 12.859C11.9767 13.4645 10.7273 14.4898 9.84826 15.8054Z" fill="#4CAF4F" stroke="#4CAF4F"/>
</svg>
